<svg xmlns="http://www.w3.org/2000/svg" viewBox="0 0 720 410" font-family="system-ui,-apple-system,Segoe UI,sans-serif">
<rect x="0" y="0" width="720" height="410" rx="12" fill="#fcfcfb"/>
<text x="62" y="32" font-size="19" font-weight="700" fill="#0b0b0b">Remove the confound, and AI-fraud detection collapses</text>
<text x="62" y="54" font-size="13" fill="#52514e">Cross-generator recall: train on one generator, test on a held-out one</text>
<rect x="616" y="68" width="11" height="11" rx="3" fill="#1baf7a"/>
<text x="632" y="78" font-size="13" fill="#52514e">Mistral</text>
<rect x="529" y="68" width="11" height="11" rx="3" fill="#2a78d6"/>
<text x="545" y="78" font-size="13" fill="#52514e">DeepSeek</text>
<line x1="62" y1="354.0" x2="696" y2="354.0" stroke="#e1e0d9" stroke-width="1"/>
<text x="54" y="358.0" font-size="11" fill="#898781" text-anchor="end" font-variant-numeric="tabular-nums">0</text>
<line x1="62" y1="289.5" x2="696" y2="289.5" stroke="#e1e0d9" stroke-width="1"/>
<text x="54" y="293.5" font-size="11" fill="#898781" text-anchor="end" font-variant-numeric="tabular-nums">25</text>
<line x1="62" y1="225.0" x2="696" y2="225.0" stroke="#e1e0d9" stroke-width="1"/>
<text x="54" y="229.0" font-size="11" fill="#898781" text-anchor="end" font-variant-numeric="tabular-nums">50</text>
<line x1="62" y1="160.5" x2="696" y2="160.5" stroke="#e1e0d9" stroke-width="1"/>
<text x="54" y="164.5" font-size="11" fill="#898781" text-anchor="end" font-variant-numeric="tabular-nums">75</text>
<line x1="62" y1="96.0" x2="696" y2="96.0" stroke="#e1e0d9" stroke-width="1"/>
<text x="54" y="100.0" font-size="11" fill="#898781" text-anchor="end" font-variant-numeric="tabular-nums">100</text>
<line x1="62" y1="354" x2="696" y2="354" stroke="#c3c2b7" stroke-width="1.5"/>
<path d="M173.5,354.0 L173.5,105.2 Q173.5,101.2 177.5,101.2 L215.5,101.2 Q219.5,101.2 219.5,105.2 L219.5,354.0 Z" fill="#2a78d6"/>
<text x="196.5" y="95.2" font-size="12" font-weight="600" fill="#52514e" text-anchor="middle" font-variant-numeric="tabular-nums">98%</text>
<path d="M221.5,354.0 L221.5,100.0 Q221.5,96.0 225.5,96.0 L263.5,96.0 Q267.5,96.0 267.5,100.0 L267.5,354.0 Z" fill="#1baf7a"/>
<text x="244.5" y="90.0" font-size="12" font-weight="600" fill="#52514e" text-anchor="middle" font-variant-numeric="tabular-nums">100%</text>
<text x="220.5" y="374.0" font-size="13" fill="#0b0b0b" text-anchor="middle">Naive corpus</text>
<path d="M490.5,354.0 L490.5,275.4 Q490.5,271.4 494.5,271.4 L532.5,271.4 Q536.5,271.4 536.5,275.4 L536.5,354.0 Z" fill="#2a78d6"/>
<text x="513.5" y="265.4" font-size="12" font-weight="600" fill="#52514e" text-anchor="middle" font-variant-numeric="tabular-nums">32%</text>
<path d="M538.5,354.0 L538.5,213.5 Q538.5,209.5 542.5,209.5 L580.5,209.5 Q584.5,209.5 584.5,213.5 L584.5,354.0 Z" fill="#1baf7a"/>
<text x="561.5" y="203.5" font-size="12" font-weight="600" fill="#52514e" text-anchor="middle" font-variant-numeric="tabular-nums">56%</text>
<text x="537.5" y="374.0" font-size="13" fill="#0b0b0b" text-anchor="middle">Distribution-matched</text>
</svg>