<svg xmlns="http://www.w3.org/2000/svg" viewBox="0 0 720 410" font-family="system-ui,-apple-system,Segoe UI,sans-serif">
<rect x="0" y="0" width="720" height="410" rx="12" fill="#fcfcfb"/>
<text x="62" y="32" font-size="19" font-weight="700" fill="#0b0b0b">Clean accuracy is not deployment accuracy</text>
<text x="62" y="54" font-size="13" fill="#52514e">Attack success rate: of the lures a detector caught, the fraction that evade after an attack</text>
<rect x="579" y="68" width="11" height="11" rx="3" fill="#1baf7a"/>
<text x="595" y="78" font-size="13" fill="#52514e">tfidf-logreg</text>
<rect x="462" y="68" width="11" height="11" rx="3" fill="#2a78d6"/>
<text x="478" y="78" font-size="13" fill="#52514e">heuristic-v0</text>
<line x1="62" y1="354.0" x2="696" y2="354.0" stroke="#e1e0d9" stroke-width="1"/>
<text x="54" y="358.0" font-size="11" fill="#898781" text-anchor="end" font-variant-numeric="tabular-nums">0</text>
<line x1="62" y1="289.5" x2="696" y2="289.5" stroke="#e1e0d9" stroke-width="1"/>
<text x="54" y="293.5" font-size="11" fill="#898781" text-anchor="end" font-variant-numeric="tabular-nums">25</text>
<line x1="62" y1="225.0" x2="696" y2="225.0" stroke="#e1e0d9" stroke-width="1"/>
<text x="54" y="229.0" font-size="11" fill="#898781" text-anchor="end" font-variant-numeric="tabular-nums">50</text>
<line x1="62" y1="160.5" x2="696" y2="160.5" stroke="#e1e0d9" stroke-width="1"/>
<text x="54" y="164.5" font-size="11" fill="#898781" text-anchor="end" font-variant-numeric="tabular-nums">75</text>
<line x1="62" y1="96.0" x2="696" y2="96.0" stroke="#e1e0d9" stroke-width="1"/>
<text x="54" y="100.0" font-size="11" fill="#898781" text-anchor="end" font-variant-numeric="tabular-nums">100</text>
<line x1="62" y1="354" x2="696" y2="354" stroke="#c3c2b7" stroke-width="1.5"/>
<path d="M94.2,354.0 L94.2,102.6 Q94.2,98.6 98.2,98.6 L136.2,98.6 Q140.2,98.6 140.2,102.6 L140.2,354.0 Z" fill="#2a78d6"/>
<text x="117.2" y="92.6" font-size="12" font-weight="600" fill="#52514e" text-anchor="middle" font-variant-numeric="tabular-nums">99%</text>
<path d="M142.2,354.0 L142.2,260.0 Q142.2,256.0 146.2,256.0 L184.2,256.0 Q188.2,256.0 188.2,260.0 L188.2,354.0 Z" fill="#1baf7a"/>
<text x="165.2" y="250.0" font-size="12" font-weight="600" fill="#52514e" text-anchor="middle" font-variant-numeric="tabular-nums">38%</text>
<text x="141.2" y="374.0" font-size="13" fill="#0b0b0b" text-anchor="middle">Homoglyph</text>
<path d="M252.8,354.0 L252.8,102.6 Q252.8,98.6 256.8,98.6 L294.8,98.6 Q298.8,98.6 298.8,102.6 L298.8,354.0 Z" fill="#2a78d6"/>
<text x="275.8" y="92.6" font-size="12" font-weight="600" fill="#52514e" text-anchor="middle" font-variant-numeric="tabular-nums">99%</text>
<path d="M300.8,354.0 L300.8,316.7 Q300.8,312.7 304.8,312.7 L342.8,312.7 Q346.8,312.7 346.8,316.7 L346.8,354.0 Z" fill="#1baf7a"/>
<text x="323.8" y="306.7" font-size="12" font-weight="600" fill="#52514e" text-anchor="middle" font-variant-numeric="tabular-nums">16%</text>
<text x="299.8" y="374.0" font-size="13" fill="#0b0b0b" text-anchor="middle">Leet</text>
<path d="M411.2,354.0 L411.2,100.0 Q411.2,96.0 415.2,96.0 L453.2,96.0 Q457.2,96.0 457.2,100.0 L457.2,354.0 Z" fill="#2a78d6"/>
<text x="434.2" y="90.0" font-size="12" font-weight="600" fill="#52514e" text-anchor="middle" font-variant-numeric="tabular-nums">100%</text>
<path d="M459.2,354.0 L459.2,350.3 Q459.2,346.3 463.2,346.3 L501.2,346.3 Q505.2,346.3 505.2,350.3 L505.2,354.0 Z" fill="#1baf7a"/>
<text x="482.2" y="340.3" font-size="12" font-weight="600" fill="#52514e" text-anchor="middle" font-variant-numeric="tabular-nums">3%</text>
<text x="458.2" y="374.0" font-size="13" fill="#0b0b0b" text-anchor="middle">Zero-width</text>
<path d="M569.8,354.0 L569.8,223.8 Q569.8,219.8 573.8,219.8 L611.8,219.8 Q615.8,219.8 615.8,223.8 L615.8,354.0 Z" fill="#2a78d6"/>
<text x="592.8" y="213.8" font-size="12" font-weight="600" fill="#52514e" text-anchor="middle" font-variant-numeric="tabular-nums">52%</text>
<path d="M617.8,354.0 L617.8,354.0 Q617.8,354.0 617.8,354.0 L663.8,354.0 Q663.8,354.0 663.8,354.0 L663.8,354.0 Z" fill="#1baf7a"/>
<text x="640.8" y="348.0" font-size="12" font-weight="600" fill="#52514e" text-anchor="middle" font-variant-numeric="tabular-nums">0%</text>
<text x="616.8" y="374.0" font-size="13" fill="#0b0b0b" text-anchor="middle">Whitespace</text>
</svg>